{"title":"UEFA.Champions.League.2011.11.23.Group.F.Arsenal.vs.Dortmund.WS.","uid":6853774,"size":1182820480,"categoryP":"video","categoryS":"tv_shows","magnet":"?xt=urn:btih:ded7700f7e75f58ff9792368a782ec6d6dcca5f4&amp;dn=UEFA.Champions.League.2011.11.23.Group.F.Arsenal.vs.Dortmund.WS.&amp;tr=udp%3A%2F%2Ftracker.openbittorrent.com%3A80&amp;tr=udp%3A%2F%2Fopen.demonii.com%3A1337&amp;tr=udp%3A%2F%2Ftracker.coppersurfer.tk%3A6969&amp;tr=udp%3A%2F%2Fexodus.desync.com%3A6969","seeders":0,"leechers":1,"uploader":"TvTeam","files":5,"time":1322620883,"description":". \n  &lt;a href=&quot;\nhttp://www.torrentday.com&quot; rel=&quot;nofollow&quot; target=&quot;_NEW&quot;&gt;\nhttp://www.torrentday.com&lt;/a&gt;\n\n\nTo Avoid Fakes, ALWAYS Check That The Torrent Was Added By: TvTeam.\n\n\n               www . TorrentDay . Com \n(((((((((((((= Enjoy No RAR releases =))))))))))))))))))))\n\n...................................NFO:....................................\n\n.UEFA.Champions.League.2011.11.23.Group.F.Arsenal.vs.Dortmund.WS.PDTV.XviD-FW4S\nPlayed: 23/11/2011\nCompetition: UEFA Champions League\nCompetitors: Group F Arsenal vs Dortmund\n\n\nGeneral\nFormat                           : AVI\nFormat/Info                      : Audio Video Interleave\nFile size                        : 1.09 GiB\nDuration                         : 1h 44mn\nOverall bit rate                 : 1 490 Kbps\nWriting application              : VirtualDubMod 1.5.10.2 (build 2540/release)\nWriting library                  : VirtualDubMod build 2540/release\n\nVideo\nID                               : 0\nFormat                           : MPEG-4 Visual\nFormat profile                   : Advanced Simple@L5\nFormat settings, BVOP            : 2\nFormat settings, QPel            : No\nFormat settings, GMC             : No warppoints\nFormat settings, Matrix          : Default (H.263)\nCodec ID                         : XVID\nCodec ID/Hint                    : XviD\nDuration                         : 1h 44mn\nBit rate                         : 1 400 Kbps\nWidth                            : 672 pixels\nHeight                           : 368 pixels\nDisplay aspect ratio             : 16:9\nFrame rate                       : 25.000 fps\nColor space                      : YUV\nChroma subsampling               : 4:2:0\nBit depth                        : 8 bits\nScan type                        : Progressive\nCompression mode                 : Lossy\nBits/(Pixel*Frame)               : 0.226\nStream size                      : 1.03 GiB (94%)\nWriting library                  : XviD 64\n\nAudio\nID                               : 1\nFormat                           : MPEG Audio\nFormat version                   : Version 1\nFormat profile                   : Layer 3\nMode                             : Joint stereo\nMode extension                   : MS Stereo\nCodec ID                         : 55\nCodec ID/Hint                    : MP3\nDuration                         : 1h 44mn\nBit rate mode                    : Variable\nBit rate                         : 77.2 Kbps\nMinimum bit rate                 : 32.0 Kbps\nChannel(s)                       : 2 channels\nSampling rate                    : 48.0 KHz\nCompression mode                 : Lossy\nStream size                      : 57.9 MiB (5%)\nAlignment                        : Aligned on interleaves\nInterleave, duration             : 24 ms (0.60 video frame)\nInterleave, preload duration     : 597 ms\nWriting library                  : LAME3.98r\nEncoding settings                : -m j -V 5 -q 2 -lowpass 16.5 --vbr-new -b 32","torrent":{"xt":"urn:btih:ded7700f7e75f58ff9792368a782ec6d6dcca5f4","amp;dn":"UEFA.Champions.League.2011.11.23.Group.F.Arsenal.vs.Dortmund.WS.","amp;tr":["udp%3A%2F%2Ftracker.openbittorrent.com%3A80","udp%3A%2F%2Fopen.demonii.com%3A1337","udp%3A%2F%2Ftracker.coppersurfer.tk%3A6969","udp%3A%2F%2Fexodus.desync.com%3A6969"],"infoHash":"ded7700f7e75f58ff9792368a782ec6d6dcca5f4","infoHashBuffer":{"type":"Buffer","data":[222,215,112,15,126,117,245,143,249,121,35,104,167,130,236,109,109,204,165,244]},"announce":[],"urlList":[]}}